<?xml version="1.0" standalone="no"?>
<!DOCTYPE svg PUBLIC "-//W3C//DTD SVG 1.1//EN" "http://www.w3.org/Graphics/SVG/1.1/DTD/svg11.dtd" >
<svg xmlns="http://www.w3.org/2000/svg">
<metadata></metadata>
<defs>
<font id="function_proLtCnOb" horiz-adv-x="737" >
<font-face units-per-em="2048" ascent="1542" descent="-506" />
<missing-glyph horiz-adv-x="382" />
<glyph horiz-adv-x="2048" />
<glyph horiz-adv-x="2048" />
<glyph unicode="&#xd;" horiz-adv-x="2048" />
<glyph unicode=" "  horiz-adv-x="382" />
<glyph unicode="&#x09;" horiz-adv-x="382" />
<glyph unicode="&#xa0;" horiz-adv-x="382" />
<glyph unicode="!" horiz-adv-x="477" d="M100 68q0 40 31.5 71t71.5 31q34 0 57 -23t23 -57q0 -41 -31.5 -72.5t-71.5 -31.5q-34 0 -57 23.5t-23 58.5zM164 342l125 1024h121l-125 -1024h-121z" />
<glyph unicode="&#x22;" horiz-adv-x="632" d="M178 823l39 543h150l-93 -543h-96zM446 823l41 543h150l-94 -543h-97z" />
<glyph unicode="#" horiz-adv-x="739" d="M6 451l14 114h170l66 262h-154l15 115h168l106 424h109l-107 -424h137l109 424h109l-107 -424h147l-14 -115h-164l-65 -262h151l-14 -114h-166l-115 -451h-108l115 451h-140l-114 -451h-107l113 451h-154zM297 565h139l66 262h-140z" />
<glyph unicode="$" d="M37 100l84 88q54 -50 95.5 -70t88.5 -20q96 0 167 79.5t71 187.5q0 81 -38 131.5t-149 121.5q-80 52 -116 82.5t-62 71.5q-53 80 -53 184q0 80 28.5 156.5t79.5 128.5q68 71 183 98l18 158h98l-18 -156q46 -2 104.5 -24.5t96.5 -54.5l-74 -97q-93 64 -170 64 q-98 0 -162.5 -70t-64.5 -176q0 -85 41 -138.5t164 -131.5q78 -49 115 -82.5t59 -73.5q39 -70 39 -164q0 -150 -90 -266t-224 -139l-22 -174h-99l21 170q-76 14 -121 38.5t-90 77.5z" />
<glyph unicode="%" horiz-adv-x="1013" d="M123 0l751 1366h72l-749 -1366h-74zM139 887q0 105 22.5 212.5t57.5 170.5q56 106 148 106q120 0 120 -188q0 -109 -20.5 -225.5t-52.5 -180.5q-54 -108 -146 -108q-63 0 -96 55t-33 158zM215 893q0 -150 66 -150q54 0 86 113q47 156 47 336q0 115 -58 115q-46 0 -80 -78 q-28 -64 -44.5 -156t-16.5 -180zM582 203q0 105 22.5 212.5t57.5 170.5q56 106 147 106q121 0 121 -188q0 -108 -21 -225t-53 -181q-54 -108 -145 -108q-63 0 -96 55t-33 158zM657 209q0 -150 66 -150q54 0 86 113q47 156 47 336q0 115 -57 115q-46 0 -80 -78 q-28 -65 -45 -157t-17 -179z" />
<glyph unicode="&#x26;" horiz-adv-x="894" d="M90 297q0 125 60 232.5t190 215.5q-84 195 -84 306q0 126 90 216.5t213 90.5q94 0 153.5 -61t59.5 -156q0 -101 -64.5 -195t-222.5 -221l179 -446q55 55 106 114l72 -86q-45 -54 -135 -141l61 -166h-131l-31 76q-111 -94 -235 -94q-121 0 -201 90t-80 225zM207 319 q0 -92 49 -152.5t123 -60.5q86 0 182 78l-178 451q-176 -164 -176 -316zM373 1059q0 -44 12 -87.5t55 -148.5l15 11q83 59 139.5 142.5t56.5 149.5q0 53 -31.5 87t-80.5 34q-70 0 -118 -54t-48 -134z" />
<glyph unicode="'" horiz-adv-x="362" d="M178 823l39 543h150l-93 -543h-96z" />
<glyph unicode="(" horiz-adv-x="526" d="M106 344q0 287 98.5 598.5t270.5 568.5l92 -49q-180 -298 -263 -564t-83 -544q0 -174 29 -329.5t98 -346.5l-104 -49q-63 150 -100.5 342.5t-37.5 372.5z" />
<glyph unicode=")" horiz-adv-x="526" d="M-16 -322q178 291 262 560t84 548q0 173 -30 332.5t-97 343.5l104 49q63 -148 100 -340t37 -372q0 -290 -98 -602.5t-270 -567.5z" />
<glyph unicode="*" horiz-adv-x="739" d="M182 1288l31 68l217 -103l31 242l69 -8l-28 -244l235 47l15 -71l-236 -48l115 -213l-62 -34l-116 213l-164 -179l-53 50l165 178z" />
<glyph unicode="+" horiz-adv-x="739" d="M94 641v113h246v247h115v-247h245v-113h-245v-250h-115v250h-246z" />
<glyph unicode="," horiz-adv-x="356" d="M-76 -250l191 420l118 -57l-227 -404z" />
<glyph unicode="-" horiz-adv-x="278" d="M-6 414l18 143h279l-19 -143h-278z" />
<glyph unicode="." horiz-adv-x="356" d="M39 68q0 40 31 71t71 31q34 0 57 -23t23 -57q0 -41 -31 -72.5t-71 -31.5q-34 0 -57 23.5t-23 58.5z" />
<glyph unicode="/" horiz-adv-x="823" d="M-127 -354l1016 1847h115l-1014 -1847h-117z" />
<glyph unicode="0" d="M74 389q0 215 43 437.5t110 349.5q109 208 277 208q107 0 163 -90.5t56 -263.5q0 -220 -43 -461t-105 -372q-104 -215 -266 -215q-114 0 -174.5 105t-60.5 302zM197 406q0 -308 135 -308q58 0 98.5 55t77.5 183q43 150 69.5 343t26.5 349q0 240 -119 240q-99 0 -168 -166 q-54 -132 -87 -324.5t-33 -371.5z" />
<glyph unicode="1" d="M248 1247l41 119h272l-168 -1366h-125l154 1247h-174z" />
<glyph unicode="2" d="M16 0l349 580q133 223 180 335.5t47 210.5q0 66 -33 104t-90 38q-62 0 -106 -42t-64 -120q-10 -36 -18 -113h-123q19 132 45 195q35 92 108 144t168 52q111 0 175.5 -67t64.5 -184q0 -104 -53 -242q-29 -75 -63.5 -137.5t-131.5 -218.5l-256 -414h367l-15 -121h-551z" />
<glyph unicode="3" d="M61 240q0 53 13 135h123q-9 -83 -9 -113q0 -77 33.5 -117.5t97.5 -40.5q107 0 156 121q18 45 30.5 118t12.5 134q0 215 -194 215h-60l15 113h51q85 0 130 23t77 83q20 36 32.5 95t12.5 114q0 68 -33 105t-94 37q-81 0 -117.5 -56.5t-48.5 -158.5h-117q20 162 98 249.5 t201 87.5q107 0 170.5 -64t63.5 -173q0 -147 -51 -247.5t-146 -143.5q69 -32 100 -94t31 -168q0 -243 -87.5 -377.5t-244.5 -134.5q-122 0 -184 65.5t-62 192.5z" />
<glyph unicode="4" d="M61 367l17 129l461 870h123l-109 -883h100l-14 -116h-100l-45 -367h-123l45 367h-355zM195 483h235l51 430q7 61 47 252q-33 -89 -106 -233z" />
<glyph unicode="5" d="M47 59l49 125q99 -78 183 -78q100 0 166.5 107.5t66.5 267.5q0 113 -46 172.5t-134 59.5q-83 0 -189 -56l170 709h400l-15 -119h-288l-101 -418q58 7 74 7q119 0 187.5 -91t68.5 -249q0 -223 -106 -368.5t-267 -145.5q-127 0 -219 77z" />
<glyph unicode="6" d="M76 279q0 263 174 591l264 496h129l-342 -639q77 47 139 47q94 0 148.5 -76.5t54.5 -208.5q0 -82 -10.5 -154.5t-34.5 -138t-61 -112.5t-93 -74.5t-127 -27.5q-115 0 -178 78t-63 219zM199 295q0 -97 35.5 -150t101.5 -53q52 0 90.5 37.5t58.5 98.5t29.5 125.5t9.5 131.5 q0 83 -34.5 132t-94.5 49q-86 0 -141 -104t-55 -267z" />
<glyph unicode="7" d="M61 0l533 1247h-387l14 119h553l-581 -1366h-132z" />
<glyph unicode="8" d="M70 270q0 187 59.5 316.5t163.5 169.5q-58 40 -83.5 92.5t-25.5 132.5q0 178 88 290.5t228 112.5q103 0 160 -67.5t57 -190.5q0 -269 -182 -370q61 -37 88.5 -96.5t27.5 -155.5q0 -112 -27.5 -218.5t-70.5 -170.5q-44 -64 -109.5 -98.5t-140.5 -34.5q-109 0 -171 76.5 t-62 211.5zM193 297q0 -96 34 -147.5t97 -51.5q104 0 159 127q22 52 35.5 130t13.5 147q0 91 -35.5 143.5t-97.5 52.5q-91 0 -148.5 -113t-57.5 -288zM305 977q0 -80 30.5 -122t88.5 -42q75 0 122.5 81t47.5 210q0 78 -31 121t-88 43q-80 0 -125 -77.5t-45 -213.5z" />
<glyph unicode="9" d="M147 0l342 639q-74 -47 -139 -47q-92 0 -146 76.5t-54 208.5q0 103 17 190.5t53.5 160.5t101 114.5t151.5 41.5q115 0 178.5 -77t63.5 -217q0 -266 -174 -594l-262 -496h-132zM270 883q0 -85 34 -134t93 -49q86 0 140.5 104.5t54.5 268.5q0 97 -35.5 150t-99.5 53 q-51 0 -89.5 -37t-58.5 -98t-29.5 -125.5t-9.5 -132.5z" />
<glyph unicode=":" horiz-adv-x="356" d="M39 68q0 40 31 71t71 31q34 0 57 -23t23 -57q0 -41 -31 -72.5t-71 -31.5q-34 0 -57 23.5t-23 58.5zM133 840q0 40 32 71t73 31q34 0 56.5 -23t22.5 -57q0 -41 -31.5 -72.5t-72.5 -31.5q-34 0 -57 23.5t-23 58.5z" />
<glyph unicode=";" horiz-adv-x="356" d="M-76 -250l191 420l118 -57l-227 -404zM141 840q0 40 31.5 71t71.5 31q34 0 57 -23.5t23 -58.5q0 -40 -31.5 -71t-71.5 -31q-34 0 -57 23.5t-23 58.5z" />
<glyph unicode="&#x3c;" horiz-adv-x="1024" d="M92 633v108l887 408v-123l-754 -338l754 -340v-121z" />
<glyph unicode="=" d="M94 532v113h606v-113h-606zM94 750v112h606v-112h-606z" />
<glyph unicode="&#x3e;" horiz-adv-x="1024" d="M94 225v125l754 338l-754 338v123l887 -408v-108z" />
<glyph unicode="?" horiz-adv-x="669" d="M135 68q0 40 31.5 71t71.5 31q34 0 56.5 -23t22.5 -57q0 -41 -31.5 -72.5t-72.5 -31.5q-33 0 -55.5 23.5t-22.5 58.5zM174 1020l12 96q35 268 267 268q89 0 140.5 -50t51.5 -136q0 -59 -12.5 -150t-30.5 -165q-51 -207 -248 -213l-41 -328h-118l53 438h86q63 0 96.5 24.5 t50.5 82.5q14 54 26.5 142t12.5 138q0 51 -23.5 79t-64.5 28q-106 0 -127 -168l-10 -86h-121z" />
<glyph unicode="@" horiz-adv-x="1333" d="M111 684q0 195 81 355.5t222 252.5t311 92q157 0 287 -79t204 -216.5t74 -304.5q0 -130 -42.5 -242.5t-114 -178.5t-154.5 -66q-46 0 -84 32.5t-47 78.5l-6 28q-53 -85 -89 -114t-91 -29q-100 0 -166 103t-66 259q0 167 80.5 280.5t198.5 113.5q85 0 133 -82l28 -58 l15 121h104l-53 -455q-6 -53 -6 -96q0 -38 17.5 -59t49.5 -21q75 0 134 113t59 258q0 219 -132 361.5t-333 142.5q-137 0 -251 -78t-179.5 -214t-65.5 -300q0 -119 35.5 -226t101.5 -189t167.5 -130.5t224.5 -48.5q99 0 179 24.5t175 84.5l47 -105q-101 -58 -195 -84 t-204 -26q-148 0 -272 56.5t-205.5 153t-126.5 223.5t-45 269zM549 647q0 -107 33 -177.5t84 -70.5q73 0 127.5 94t54.5 220q0 99 -36.5 164t-92.5 65q-72 0 -121 -84.5t-49 -210.5z" />
<glyph unicode="A" horiz-adv-x="655" d="M-55 0l432 1366h117l102 -1366h-133l-17 281h-284l-84 -281h-133zM195 389h245l-30 483q-7 126 -7 162q0 31 9 160q-32 -179 -74 -322z" />
<glyph unicode="B" horiz-adv-x="708" d="M53 0l168 1366h197q137 0 190 -45q74 -65 74 -221q0 -90 -24 -174t-64 -135q-23 -30 -50 -49.5t-75 -41.5q89 -25 127.5 -77.5t38.5 -149.5q0 -114 -26 -210t-72 -152q-51 -63 -115.5 -87t-183.5 -24h-185zM193 109h65q75 0 121 23t74 75q51 94 51 233q0 209 -172 209 h-74zM272 762h68q101 0 145 55q32 43 51 121.5t19 173.5q0 79 -32 112t-109 33h-82z" />
<glyph unicode="C" horiz-adv-x="645" d="M84 412q0 210 48.5 434t117.5 342q120 198 309 198q98 0 158 -45l-17 -139q-51 36 -81 49t-66 13q-160 0 -240 -215q-44 -119 -70 -286.5t-26 -338.5q0 -318 180 -318q77 0 176 62l-16 -129q-92 -57 -182 -57q-108 0 -189 81q-47 47 -74.5 141.5t-27.5 207.5z" />
<glyph unicode="D" horiz-adv-x="747" d="M53 0l168 1366h158q140 0 213 -43q60 -35 93.5 -117t33.5 -192q0 -258 -53 -537q-32 -171 -80.5 -268t-128.5 -150q-85 -59 -238 -59h-166zM193 117h59q82 0 137.5 37.5t95.5 119.5q41 85 72 303.5t31 423.5q0 132 -48 190t-155 58h-53z" />
<glyph unicode="E" horiz-adv-x="608" d="M53 0l168 1366h420l-14 -117h-295l-60 -481h289l-14 -117h-289l-65 -534h294l-12 -117h-422z" />
<glyph unicode="F" horiz-adv-x="595" d="M53 0l168 1366h428l-14 -117h-303l-60 -481h289l-14 -117h-289l-80 -651h-125z" />
<glyph unicode="G" horiz-adv-x="753" d="M82 324q0 235 37.5 479t91.5 358q106 223 307 223q60 0 111 -26t80 -70q33 -49 49 -162l-129 -49q-8 98 -38 141.5t-91 43.5q-161 0 -226 -308q-28 -127 -46.5 -302t-18.5 -302q0 -126 36 -186t111 -60q47 0 86 27.5t58 73.5q34 82 55 272l14 127h-182l14 117h308 l-33 -275q-22 -194 -70 -286q-90 -178 -274 -178q-250 0 -250 342z" />
<glyph unicode="H" horiz-adv-x="778" d="M53 0l168 1366h125l-67 -545h307l67 545h125l-168 -1366h-125l86 705h-307l-86 -705h-125z" />
<glyph unicode="I" horiz-adv-x="346" d="M53 0l168 1366h125l-168 -1366h-125z" />
<glyph unicode="J" horiz-adv-x="452" d="M-53 16l16 131q33 -33 59 -46t58 -13q65 0 90 55q9 23 20 117l136 1106h125l-138 -1133q-10 -87 -20.5 -121t-32.5 -63q-56 -69 -174 -69q-68 0 -139 36z" />
<glyph unicode="K" horiz-adv-x="663" d="M53 0l168 1366h125l-76 -621l346 621h140l-371 -649l205 -717h-141l-187 688l-84 -688h-125z" />
<glyph unicode="L" horiz-adv-x="530" d="M53 0l168 1366h125l-153 -1249h292l-14 -117h-418z" />
<glyph unicode="M" horiz-adv-x="1007" d="M-14 0l356 1366h109l28 -936q0 -9 1 -51.5t1 -67.5q0 -57 -2 -98q14 74 51 213l273 940h106l-2 -1366h-123l15 887q3 93 18 248q-7 -28 -8 -29l-10 -55q-9 -51 -41 -164l-258 -887h-103l-35 889v18q0 35 5 183l2 45q-7 -49 -15 -101.5t-10 -67.5t-6 -34t-10 -43 l-219 -889h-123z" />
<glyph unicode="N" horiz-adv-x="780" d="M53 0l168 1366h109l192 -928q9 -44 27 -162q3 99 14 199l109 891h108l-168 -1366h-108l-187 901l-18 103q-9 54 -14 90q-3 -113 -19 -242l-104 -852h-109z" />
<glyph unicode="O" horiz-adv-x="815" d="M86 410q0 226 44.5 448.5t113.5 339.5q109 186 274 186q97 0 156 -53q51 -44 79.5 -141t28.5 -223q0 -225 -43.5 -453t-109.5 -346q-105 -186 -281 -186q-262 0 -262 428zM213 391q0 -140 38.5 -212.5t113.5 -72.5q135 0 202 220q37 115 63.5 314.5t26.5 352.5 q0 269 -149 269q-66 0 -114 -50t-85 -157q-41 -117 -68.5 -305.5t-27.5 -358.5z" />
<glyph unicode="P" horiz-adv-x="663" d="M53 0l168 1366h162q163 0 233 -61.5t70 -202.5q0 -120 -30 -220t-81 -149q-43 -43 -105 -61.5t-159 -18.5h-53l-80 -653h-125zM272 770h84q110 0 156 78q20 33 33.5 104t13.5 138q0 54 -20 93t-54 54q-30 12 -92 12h-61z" />
<glyph unicode="Q" horiz-adv-x="815" d="M86 412q0 226 44.5 447.5t113.5 338.5q111 186 274 186q97 0 156 -53q51 -44 79.5 -141.5t28.5 -226.5q0 -252 -54 -496.5t-132 -347.5l80 -156l-107 -63l-65 127q-62 -45 -160 -45q-127 0 -192.5 109t-65.5 321zM213 389q0 -283 154 -283q44 0 84 25l-97 188l107 66 l76 -147q51 118 85.5 337.5t34.5 419.5q0 267 -151 267q-65 0 -112.5 -50t-84.5 -157q-41 -117 -68.5 -306t-27.5 -360z" />
<glyph unicode="R" horiz-adv-x="757" d="M63 0l168 1366h168q114 0 172.5 -15t96.5 -55q69 -72 69 -202q0 -104 -28 -197.5t-74 -146.5q-41 -46 -88.5 -67.5t-122.5 -27.5l231 -655h-143l-231 668l-82 -668h-136zM293 768h84q75 0 116.5 23.5t67.5 80.5q39 83 39 211q0 91 -41 128.5t-139 37.5h-68z" />
<glyph unicode="S" horiz-adv-x="700" d="M49 51l21 164q92 -111 202 -111q100 0 170 83.5t70 201.5q0 71 -37 123.5t-141 130.5q-116 86 -161.5 157.5t-45.5 166.5q0 172 105 294.5t253 122.5q109 0 201 -71l-18 -162q-47 62 -89 86.5t-100 24.5q-92 0 -157.5 -75.5t-65.5 -182.5q0 -72 32.5 -125.5t112.5 -112.5 q138 -103 189 -176t51 -170q0 -178 -116 -309t-273 -131q-117 0 -203 71z" />
<glyph unicode="T" horiz-adv-x="534" d="M98 1249l15 117h528l-14 -117h-201l-154 -1249h-125l154 1249h-203z" />
<glyph unicode="U" horiz-adv-x="786" d="M88 236q0 54 14 174l117 956h127l-117 -946q-16 -128 -16 -176q0 -63 36.5 -100.5t98.5 -37.5q44 0 82.5 20.5t58.5 55.5q20 32 31 80t25 158l117 946h124l-116 -956q-15 -129 -32.5 -192t-49.5 -107q-88 -129 -256 -129q-117 0 -180.5 65.5t-63.5 188.5z" />
<glyph unicode="V" horiz-adv-x="657" d="M113 1366h127l59 -905q4 -86 4 -113q0 -37 -6 -162q37 176 65 271l275 909h129l-440 -1366h-111z" />
<glyph unicode="W" horiz-adv-x="1019" d="M113 1366h127l16 -860l2 -25q2 -38 -8 -196q0 -17 -2 -35q66 248 71 266l248 850h109l18 -864l2 -31q4 -53 2 -102l-2 -88v-31q19 85 66 258l237 858h127l-403 -1366h-115l-22 889v76q0 52 4 122q0 4 0.5 11t1.5 20.5t2 24.5q-2 -7 -4 -15.5t-3 -13t-1 -6.5l-8 -43 q-9 -47 -46 -182l-258 -883h-114z" />
<glyph unicode="X" horiz-adv-x="641" d="M-55 0l346 694l-178 672h133l80 -338q30 -135 32 -240q20 72 95 232l161 346h136l-340 -672l172 -694h-133l-84 387q-29 145 -31 195q-13 -49 -82 -199l-174 -383h-133z" />
<glyph unicode="Y" horiz-adv-x="638" d="M113 1366h135l78 -399q23 -123 30 -244q31 106 90 250l164 393h135l-339 -768l-74 -598h-125l74 598z" />
<glyph unicode="Z" horiz-adv-x="563" d="M-41 0l526 1249h-338l15 117h495l-530 -1249h340l-14 -117h-494z" />
<glyph unicode="[" horiz-adv-x="538" d="M47 -354l227 1847h324l-12 -96h-205l-203 -1655h205l-12 -96h-324z" />
<glyph unicode="\" horiz-adv-x="823" d="M72 1493h114l564 -1847h-119z" />
<glyph unicode="]" horiz-adv-x="538" d="M-33 -354l13 96h204l205 1655h-207l13 96h323l-227 -1847h-324z" />
<glyph unicode="^" horiz-adv-x="1024" d="M86 762l371 606h161l369 -606h-135l-317 510l-314 -510h-135z" />
<glyph unicode="_" horiz-adv-x="1024" d="M25 -143h1024v-115h-1024v115z" />
<glyph unicode="`" horiz-adv-x="1024" d="M406 1262l106 73l147 -248l-71 -49z" />
<glyph unicode="a" horiz-adv-x="667" d="M63 233q0 145 24.5 301.5t59.5 243.5q70 164 218 164q44 0 75 -17.5t60 -60.5l8 64h115l-115 -928h-115l8 74q-41 -47 -79.5 -67.5t-85.5 -20.5q-173 0 -173 247zM182 246q0 -164 101 -164q38 0 69.5 24.5t48.5 67.5q28 69 53 233.5t25 278.5q0 77 -25.5 118.5 t-74.5 41.5q-46 0 -78 -32.5t-55 -102.5t-43.5 -216t-20.5 -249z" />
<glyph unicode="b" horiz-adv-x="657" d="M43 0l184 1493h115l-78 -629q40 43 75 60.5t81 17.5q92 0 137 -63t45 -193q0 -142 -26 -301t-64 -248q-31 -73 -82 -112t-117 -39q-47 0 -80.5 20.5t-64.5 67.5l-10 -74h-115zM188 238q0 -156 103 -156q50 0 82 36.5t55 119.5q22 76 38.5 209.5t16.5 226.5 q0 172 -102 172q-107 0 -145 -193q-20 -98 -34 -218t-14 -197z" />
<glyph unicode="c" horiz-adv-x="499" d="M57 315q0 120 28.5 248.5t72.5 210.5q42 81 104 124.5t133 43.5q66 0 119 -35l-16 -137q-53 64 -105 64q-56 0 -100 -51.5t-68 -132t-35.5 -162.5t-11.5 -158q0 -107 33 -171.5t88 -64.5q31 0 60 19t67 65l-18 -145q-65 -47 -140 -47q-95 0 -153 90t-58 239z" />
<glyph unicode="d" horiz-adv-x="657" d="M53 233q0 145 24.5 301.5t59.5 243.5q70 164 217 164q44 0 75 -17.5t60 -60.5l76 629h117l-184 -1493h-115l8 74q-41 -47 -80 -67.5t-86 -20.5q-172 0 -172 247zM172 246q0 -164 100 -164q38 0 70 24.5t49 67.5q28 69 53 233.5t25 278.5q0 77 -25.5 118.5t-74.5 41.5 q-46 0 -78 -32.5t-55 -102.5t-43.5 -216t-20.5 -249z" />
<glyph unicode="e" horiz-adv-x="638" d="M57 315q0 125 27.5 252t71.5 211q43 80 101.5 122t125.5 42q98 0 149.5 -80.5t51.5 -234.5q0 -82 -17 -187h-387q-8 -71 -8 -125q0 -221 109 -221q57 0 93 53t56 168h115q-26 -160 -95.5 -244.5t-173.5 -84.5q-219 0 -219 329zM195 539h270q6 73 6 110q0 89 -25 137 t-71 48q-131 0 -180 -295z" />
<glyph unicode="f" horiz-adv-x="413" d="M74 819l14 109h102l43 344q27 235 201 235q54 0 98 -20l-16 -127q-47 39 -78 39q-39 0 -63 -31q-17 -22 -27 -96l-41 -344h156l-12 -109h-158l-100 -819h-117l102 819h-104z" />
<glyph unicode="g" horiz-adv-x="675" d="M25 -162q0 34 8 86h114q-4 -33 -4 -65q0 -119 107 -119q77 0 108 57q12 20 19 53.5t22 141.5l11 74q-72 -66 -156 -66q-92 0 -140 68.5t-48 201.5q0 142 24 283.5t62 220.5q77 168 215 168q85 0 139 -78l8 64h117l-121 -983q-12 -95 -22.5 -133t-34.5 -76 q-32 -50 -90.5 -77.5t-131.5 -27.5q-101 0 -153.5 53t-52.5 154zM184 276q0 -88 28.5 -134t82.5 -46q51 0 84 39.5t55 124.5q19 75 35 207t16 207q0 82 -27.5 127t-78.5 45q-46 0 -77.5 -32t-53.5 -101q-25 -75 -44.5 -208.5t-19.5 -228.5z" />
<glyph unicode="h" horiz-adv-x="673" d="M43 0l184 1493h115l-78 -639q88 88 187 88q73 0 114 -42t41 -116q0 -44 -6 -100l-86 -684h-115l82 666q8 82 8 90q0 39 -24.5 64.5t-61.5 25.5q-33 0 -65 -16.5t-53 -43.5q-20 -26 -30.5 -61.5t-18.5 -99.5l-78 -625h-115z" />
<glyph unicode="i" horiz-adv-x="317" d="M43 0l115 928h114l-114 -928h-115zM162 1192q0 40 29 69t69 29q32 0 54 -22t22 -54q0 -38 -30 -68t-68 -30q-32 0 -54 22t-22 54z" />
<glyph unicode="j" horiz-adv-x="323" d="M6 -354l158 1282h115l-158 -1282h-115zM168 1192q0 39 29.5 68.5t68.5 29.5q32 0 54 -22t22 -54q0 -38 -30 -68t-68 -30q-32 0 -54 22t-22 54z" />
<glyph unicode="k" horiz-adv-x="632" d="M43 0l184 1493h115l-115 -942l273 377h131l-314 -416l271 -512h-146l-229 444l-55 -444h-115z" />
<glyph unicode="l" horiz-adv-x="317" d="M43 0l184 1493h115l-184 -1493h-115z" />
<glyph unicode="m" horiz-adv-x="1036" d="M43 0l115 928h114l-10 -78q92 92 189 92q113 0 155 -108q54 60 99 84t104 24q75 0 118.5 -42.5t43.5 -115.5q0 -24 -8 -94l-84 -690h-117l86 686q4 40 4 57q0 103 -90 103q-37 0 -71 -20t-56 -54q-29 -49 -45 -180l-72 -592h-117l84 684q1 11 4 35.5t3 32.5q0 44 -22 69 t-60 25q-32 0 -65.5 -17t-53.5 -43q-25 -33 -38.5 -77t-23.5 -134l-71 -575h-115z" />
<glyph unicode="n" horiz-adv-x="673" d="M43 0l115 928h114l-8 -74q88 88 189 88q72 0 112.5 -44t40.5 -122q0 -40 -6 -92l-86 -684h-115l82 666q8 82 8 90q0 39 -24.5 64.5t-61.5 25.5q-33 0 -65 -16.5t-53 -43.5q-20 -26 -30.5 -61.5t-18.5 -99.5l-78 -625h-115z" />
<glyph unicode="o" horiz-adv-x="659" d="M57 319q0 121 25.5 245t67.5 208q87 170 241 170q101 0 156 -77.5t55 -221.5q0 -136 -25 -273t-63 -214q-86 -170 -240 -170q-217 0 -217 333zM176 299q0 -97 29.5 -151t81.5 -54q84 0 133 133q61 166 61 402q0 205 -104 205q-41 0 -76.5 -34.5t-60.5 -99.5 q-28 -72 -46 -186t-18 -215z" />
<glyph unicode="p" horiz-adv-x="657" d="M0 -354l158 1282h114l-6 -64q38 43 73 60.5t81 17.5q184 0 184 -256q0 -142 -26 -301t-64 -248q-31 -73 -82 -112t-117 -39q-49 0 -82.5 20t-64.5 68l-53 -428h-115zM188 236q0 -154 103 -154q51 0 83.5 36.5t55.5 119.5q22 78 38.5 211t16.5 227q0 170 -102 170 q-106 0 -147 -193q-20 -96 -34 -218t-14 -199z" />
<glyph unicode="q" horiz-adv-x="667" d="M63 233q0 145 24.5 301.5t59.5 243.5q70 164 218 164q44 0 75 -17.5t60 -60.5l8 64h115l-158 -1282h-115l51 428q-41 -47 -79.5 -67.5t-85.5 -20.5q-173 0 -173 247zM182 246q0 -164 101 -164q38 0 69.5 24.5t48.5 67.5q28 69 53 233.5t25 278.5q0 77 -25.5 118.5 t-74.5 41.5q-46 0 -78 -32.5t-55 -102.5t-43.5 -216t-20.5 -249z" />
<glyph unicode="r" horiz-adv-x="397" d="M43 0l115 928h114l-14 -123q76 137 170 137l-16 -137q-10 2 -23 2q-41 0 -79.5 -30.5t-55.5 -76.5q-16 -50 -27 -137l-69 -563h-115z" />
<glyph unicode="s" horiz-adv-x="505" d="M6 49l17 137q43 -51 76.5 -71.5t74.5 -20.5q63 0 107.5 48.5t44.5 117.5q0 44 -20.5 78t-88.5 102q-70 70 -101.5 126t-31.5 110q0 110 75.5 188t182.5 78q80 0 156 -59l-19 -144q-65 95 -143 95q-55 0 -93 -41t-38 -101q0 -41 23 -78t83 -94q79 -73 107 -121.5 t28 -111.5q0 -123 -82 -212t-196 -89q-87 0 -162 63z" />
<glyph unicode="t" horiz-adv-x="405" d="M78 0l100 819h-96l12 109h99l30 254h115l-31 -254h152l-13 -109h-151l-102 -819h-115z" />
<glyph unicode="u" horiz-adv-x="677" d="M70 184q0 27 2 41l86 703h116l-73 -604q-11 -87 -11 -111q0 -119 105 -119q41 0 73 21.5t46 58.5q17 44 30 150l74 604h117l-86 -703q-13 -110 -86 -174.5t-182 -64.5q-98 0 -154.5 53t-56.5 145z" />
<glyph unicode="v" horiz-adv-x="563" d="M70 928h118l54 -555q8 -92 8 -199q23 99 55 195l182 559h119l-315 -928h-125z" />
<glyph unicode="w" horiz-adv-x="899" d="M78 928h117l34 -563l2 -117q0 -39 -2 -78l25 90q5 20 27 98l161 570h117l21 -559l2 -25v-174q45 165 55 197l180 561h119l-315 -928h-119l-21 627v59q0 22 -1 38t-1 21v27q-33 -140 -35 -147l-178 -625h-119z" />
<glyph unicode="x" horiz-adv-x="571" d="M-43 0l268 473l-133 455h127l55 -228q22 -98 27 -165q29 89 72 172l112 221h129l-260 -455l146 -473h-129l-68 264q-25 94 -27 137q-25 -78 -57 -139l-133 -262h-129z" />
<glyph unicode="y" horiz-adv-x="591" d="M43 -336l135 361l-108 903h118l52 -514q12 -122 12 -234q9 36 72 215l190 533h121l-469 -1264h-123z" />
<glyph unicode="z" horiz-adv-x="555" d="M-47 0l463 819h-314l15 109h485l-469 -819h309l-14 -109h-475z" />
<glyph unicode="{" horiz-adv-x="555" d="M109 514l14 121q66 17 97.5 57t41.5 123l49 402q19 145 86 212.5t191 67.5h30l-12 -102h-22q-83 0 -116 -41.5t-48 -163.5l-47 -383q-13 -105 -45.5 -154.5t-106.5 -83.5q54 -32 76 -71.5t22 -102.5q0 -6 -1 -17t-2.5 -26.5t-2.5 -23.5l-45 -371q-8 -66 -8 -109 q0 -67 43 -88q15 -9 26 -10.5t54 -3.5q10 0 20 -2l-12 -100q-127 0 -185.5 45t-58.5 161q0 23 7 95l47 377q4 40 4 57q0 57 -22.5 88.5t-73.5 46.5z" />
<glyph unicode="|" horiz-adv-x="1024" d="M475 -342v1708h123v-1708h-123z" />
<glyph unicode="}" horiz-adv-x="555" d="M-39 -356l12 100l21 2h26q66 0 95 44.5t43 160.5l47 383q12 102 45 152.5t108 84.5q-54 32 -76 71t-22 103q0 22 4 68l45 371q8 36 8 108q0 58 -27.5 80.5t-92.5 22.5h-21l12 102h29q109 0 161 -51.5t52 -157.5q0 -17 -6 -92l-45 -379q-1 -10 -2.5 -23.5t-2.5 -23 t-1 -12.5q0 -55 23 -86.5t75 -44.5l-16 -121q-65 -17 -96.5 -58t-41.5 -124l-49 -400q-19 -145 -85.5 -212.5t-192.5 -67.5h-29z" />
<glyph unicode="~" horiz-adv-x="1345" d="M215 1251q63 126 123.5 177t146.5 51q75 0 230 -74q90 -42 127 -55t73 -13q58 0 101 32t90 112l76 -45q-57 -114 -125.5 -168t-157.5 -54q-42 0 -90 18t-188 83q-86 41 -144 41q-55 0 -98.5 -36t-87.5 -118z" />
<glyph unicode="&#xa2;" d="M186 553q0 121 28.5 250t72.5 211q35 64 74.5 99t103.5 58l20 166h101l-19 -161q44 -9 78 -31l-16 -135q-52 61 -105 61q-58 0 -102.5 -51t-68 -131t-35 -162t-11.5 -160q0 -106 33 -169.5t88 -63.5q32 0 60 19t67 65l-16 -146q-38 -26 -88 -41l-23 -180h-100l22 180 q-164 66 -164 322z" />
<glyph unicode="&#xa3;" d="M10 61q41 67 91 104.5t100 37.5q6 0 30 -4q76 98 76 196q0 76 -33 135h-188l12 86h144q-92 183 -92 324q0 173 100 288t252 115q106 0 176 -73t70 -185q0 -14 -3 -41l-118 -22v39q0 71 -41 115.5t-105 44.5q-91 0 -146.5 -74.5t-55.5 -194.5q0 -59 28.5 -154t71.5 -182 h211l-10 -86h-170q22 -62 22 -106q0 -66 -29 -136.5t-77 -121.5q35 -25 45 -33q40 -31 59.5 -41t40.5 -10q61 0 84 100l102 -35q-19 -84 -73 -135t-125 -51q-40 0 -69 13.5t-114 72.5q-47 35 -73 35q-58 0 -97 -82z" />
<glyph unicode="&#xa5;" d="M41 553l10 84h275l-29 133h-229l10 84h201l-111 512h129l78 -399q23 -115 31 -244q35 116 90 248l163 395h129l-225 -512h191l-11 -84h-219l-59 -133h262l-10 -84h-275l-67 -553h-115l70 553h-289z" />
<glyph unicode="&#xa8;" horiz-adv-x="1024" d="M391 1137q0 38 30 68t68 30q34 0 56 -22t22 -56q0 -38 -30 -68t-70 -30q-31 0 -53.5 23t-22.5 55zM643 1137q0 38 30 68t68 30q34 0 56 -22t22 -56q0 -38 -30 -68t-70 -30q-31 0 -53.5 23t-22.5 55z" />
<glyph unicode="&#xa9;" horiz-adv-x="1525" d="M94 682q0 146 55.5 277t149.5 226t224.5 150.5t275.5 55.5q184 0 342.5 -96t251 -259.5t92.5 -353.5q0 -191 -93 -354t-253 -258t-348 -95q-141 0 -270 56t-222.5 151t-149 226t-55.5 274zM174 682q0 -128 49.5 -245.5t132 -202t197 -135t238.5 -50.5q166 0 307.5 85 t224 231t82.5 317q0 170 -82 316.5t-222 232.5t-302 86q-172 0 -316 -84.5t-226.5 -230.5t-82.5 -320zM530 532q0 122 30 251.5t73 197.5q78 123 207 123q63 0 110 -31l-12 -112q-47 30 -64.5 37.5t-42.5 7.5q-32 0 -61.5 -17.5t-48.5 -48.5q-37 -62 -58.5 -167.5 t-21.5 -225.5q0 -95 25 -140t79 -45q27 0 49.5 8.5t75.5 37.5l-14 -107q-68 -39 -127 -39q-92 0 -145.5 72.5t-53.5 197.5z" />
<glyph unicode="&#xab;" horiz-adv-x="655" d="M70 485l266 385l72 -43l-234 -342l150 -350l-84 -47zM295 485l266 385l72 -43l-234 -342l150 -350l-84 -47z" />
<glyph unicode="&#xad;" horiz-adv-x="278" d="M-6 414l18 143h279l-19 -143h-278z" />
<glyph unicode="&#xae;" horiz-adv-x="1525" d="M94 682q0 146 55.5 277t149.5 226t224.5 150.5t275.5 55.5q184 0 342.5 -96t251 -259.5t92.5 -353.5q0 -191 -93 -354t-253 -258t-348 -95q-141 0 -270 56t-222.5 151t-149 226t-55.5 274zM174 682q0 -128 49.5 -245.5t132 -202t197 -135t238.5 -50.5q166 0 307.5 85 t224 231t82.5 317q0 170 -82 316.5t-222 232.5t-302 86q-172 0 -316 -84.5t-226.5 -230.5t-82.5 -320zM563 272l101 820h112q112 0 159.5 -39t47.5 -131q0 -117 -45 -186t-131 -81l135 -383h-113l-118 340l-41 -340h-107zM727 745h35q60 0 87.5 39.5t27.5 128.5 q0 47 -20.5 65.5t-72.5 18.5h-26z" />
<glyph unicode="&#xb4;" horiz-adv-x="1024" d="M549 1094l215 241l94 -88l-244 -209z" />
<glyph unicode="&#xb8;" horiz-adv-x="1024" d="M309 -344l166 270l90 -57l-192 -258z" />
<glyph unicode="&#xbb;" horiz-adv-x="655" d="M27 135l233 350l-147 342l82 43l172 -385l-269 -397zM252 135l235 350l-149 342l82 43l172 -385l-268 -397z" />
<glyph unicode="&#xc4;" horiz-adv-x="655" d="M-55 0l432 1366h117l102 -1366h-133l-17 281h-284l-84 -281h-133zM195 389h245l-30 483q-7 126 -7 162q0 31 9 160q-32 -179 -74 -322zM246 1559q0 40 30 70t68 30q33 0 55.5 -22.5t22.5 -55.5q0 -40 -30 -70t-70 -30q-32 0 -54 23t-22 55zM504 1559q0 40 30 70t68 30 q34 0 56 -22t22 -56q0 -40 -30 -70t-70 -30q-32 0 -54 23t-22 55z" />
<glyph unicode="&#xd6;" horiz-adv-x="815" d="M86 410q0 226 44.5 448.5t113.5 339.5q109 186 274 186q97 0 156 -53q51 -44 79.5 -141t28.5 -223q0 -225 -43.5 -453t-109.5 -346q-105 -186 -281 -186q-262 0 -262 428zM213 391q0 -140 38.5 -212.5t113.5 -72.5q135 0 202 220q37 115 63.5 314.5t26.5 352.5 q0 269 -149 269q-66 0 -114 -50t-85 -157q-41 -117 -68.5 -305.5t-27.5 -358.5zM332 1559q0 40 30 70t68 30q33 0 55.5 -22.5t22.5 -55.5q0 -40 -30 -70t-70 -30q-32 0 -54 23t-22 55zM590 1559q0 40 30 70t68 30q34 0 56 -22t22 -56q0 -40 -30 -70t-70 -30q-32 0 -54 23 t-22 55z" />
<glyph unicode="&#xdc;" horiz-adv-x="786" d="M88 236q0 54 14 174l117 956h127l-117 -946q-16 -128 -16 -176q0 -63 36.5 -100.5t98.5 -37.5q44 0 82.5 20.5t58.5 55.5q20 32 31 80t25 158l117 946h124l-116 -956q-15 -129 -32.5 -192t-49.5 -107q-88 -129 -256 -129q-117 0 -180.5 65.5t-63.5 188.5zM317 1559 q0 39 30.5 69.5t68.5 30.5q33 0 55.5 -22.5t22.5 -55.5q0 -40 -30.5 -70t-70.5 -30q-32 0 -54 23t-22 55zM575 1559q0 39 30.5 69.5t68.5 30.5q34 0 56 -22t22 -56q0 -40 -30.5 -70t-70.5 -30q-32 0 -54 23t-22 55z" />
<glyph unicode="&#xdf;" horiz-adv-x="686" d="M55 838l15 120h104l23 183q14 113 34 174.5t58 107.5q33 39 84.5 61.5t109.5 22.5q103 0 158 -62t55 -177q0 -144 -44.5 -239t-127.5 -130q58 -28 82.5 -80t24.5 -149q0 -158 -25.5 -301.5t-66.5 -216.5q-85 -152 -236 -152h-43l14 117h35q53 0 87.5 29t56.5 92 q23 63 43 200.5t20 231.5q0 168 -117 168h-37l17 120h33q51 0 80 21t51 72q30 78 30 194q0 154 -108 154q-66 0 -99.5 -55t-50.5 -189l-143 -1155h-115l103 838h-105z" />
<glyph unicode="&#xe4;" horiz-adv-x="667" d="M63 233q0 145 24.5 301.5t59.5 243.5q70 164 218 164q44 0 75 -17.5t60 -60.5l8 64h115l-115 -928h-115l8 74q-41 -47 -79.5 -67.5t-85.5 -20.5q-173 0 -173 247zM182 246q0 -164 101 -164q38 0 69.5 24.5t48.5 67.5q28 69 53 233.5t25 278.5q0 77 -25.5 118.5 t-74.5 41.5q-46 0 -78 -32.5t-55 -102.5t-43.5 -216t-20.5 -249zM207 1137q0 38 30 68t68 30q34 0 56 -22t22 -56q0 -38 -30 -68t-70 -30q-31 0 -53.5 23t-22.5 55zM459 1137q0 38 30 68t68 30q34 0 56 -22t22 -56q0 -38 -30 -68t-70 -30q-31 0 -53.5 23t-22.5 55z" />
<glyph unicode="&#xf6;" horiz-adv-x="659" d="M57 319q0 121 25.5 245t67.5 208q87 170 241 170q101 0 156 -77.5t55 -221.5q0 -136 -25 -273t-63 -214q-86 -170 -240 -170q-217 0 -217 333zM176 299q0 -97 29.5 -151t81.5 -54q84 0 133 133q61 166 61 402q0 205 -104 205q-41 0 -76.5 -34.5t-60.5 -99.5 q-28 -72 -46 -186t-18 -215zM223 1137q0 38 30.5 68t68.5 30q34 0 55.5 -22t21.5 -56q0 -38 -30 -68t-70 -30q-31 0 -53.5 23t-22.5 55zM475 1137q0 38 30 68t68 30q34 0 56 -22t22 -56q0 -38 -30 -68t-70 -30q-31 0 -53.5 23t-22.5 55z" />
<glyph unicode="&#xfc;" horiz-adv-x="677" d="M70 184q0 27 2 41l86 703h116l-73 -604q-11 -87 -11 -111q0 -119 105 -119q41 0 73 21.5t46 58.5q17 44 30 150l74 604h117l-86 -703q-13 -110 -86 -174.5t-182 -64.5q-98 0 -154.5 53t-56.5 145zM215 1137q0 38 30 68t68 30q34 0 56 -22t22 -56q0 -38 -30 -68t-70 -30 q-31 0 -53.5 23t-22.5 55zM467 1137q0 38 30 68t68 30q34 0 56 -22t22 -56q0 -38 -30 -68t-70 -30q-31 0 -53.5 23t-22.5 55z" />
<glyph unicode="&#x2c6;" horiz-adv-x="1024" d="M381 1116l242 221l186 -225l-84 -74l-119 146l-162 -146z" />
<glyph unicode="&#x2da;" horiz-adv-x="1024" d="M451 1196q0 65 45.5 110.5t111.5 45.5q64 0 110 -46t46 -110q0 -66 -46 -112t-112 -46q-63 0 -109 47t-46 111zM532 1196q0 -31 22.5 -53.5t51.5 -22.5q32 0 54 22t22 54q0 31 -21.5 52.5t-52.5 21.5q-32 0 -54 -21.5t-22 -52.5z" />
<glyph unicode="&#x2dc;" horiz-adv-x="1024" d="M373 1071q17 75 55.5 115.5t93.5 40.5q27 0 54.5 -9t80.5 -36q19 -13 37 -13q26 0 37 50h113q-12 -75 -52 -115.5t-102 -40.5q-52 0 -125 43q-26 16 -43 16q-28 0 -37 -51h-112z" />
<glyph unicode="&#x2000;" horiz-adv-x="829" />
<glyph unicode="&#x2001;" horiz-adv-x="1659" />
<glyph unicode="&#x2002;" horiz-adv-x="829" />
<glyph unicode="&#x2003;" horiz-adv-x="1659" />
<glyph unicode="&#x2004;" horiz-adv-x="553" />
<glyph unicode="&#x2005;" horiz-adv-x="414" />
<glyph unicode="&#x2006;" horiz-adv-x="276" />
<glyph unicode="&#x2007;" horiz-adv-x="276" />
<glyph unicode="&#x2008;" horiz-adv-x="207" />
<glyph unicode="&#x2009;" horiz-adv-x="331" />
<glyph unicode="&#x200a;" horiz-adv-x="92" />
<glyph unicode="&#x2010;" horiz-adv-x="278" d="M-6 414l18 143h279l-19 -143h-278z" />
<glyph unicode="&#x2011;" horiz-adv-x="278" d="M-6 414l18 143h279l-19 -143h-278z" />
<glyph unicode="&#x2012;" horiz-adv-x="278" d="M-6 414l18 143h279l-19 -143h-278z" />
<glyph unicode="&#x2013;" horiz-adv-x="739" d="M127 414l18 143h471l-18 -143h-471z" />
<glyph unicode="&#x2014;" horiz-adv-x="835" d="M-6 414l18 143h834l-17 -143h-835z" />
<glyph unicode="&#x2018;" horiz-adv-x="411" d="M143 979l228 405l82 -41l-191 -421z" />
<glyph unicode="&#x2019;" horiz-adv-x="411" d="M141 963l191 421l119 -59l-228 -403z" />
<glyph unicode="&#x201a;" horiz-adv-x="411" d="M-20 -250l190 420l119 -57l-228 -404z" />
<glyph unicode="&#x201c;" horiz-adv-x="651" d="M143 979l228 405l82 -41l-191 -421zM381 979l229 405l80 -41l-190 -421z" />
<glyph unicode="&#x201d;" horiz-adv-x="651" d="M141 963l191 421l119 -59l-228 -403zM379 963l190 421l119 -59l-227 -403z" />
<glyph unicode="&#x201e;" horiz-adv-x="651" d="M-20 -250l190 420l119 -57l-228 -404zM217 -250l191 420l118 -57l-227 -404z" />
<glyph unicode="&#x2026;" horiz-adv-x="989" d="M27 68q0 40 31 71t71 31q34 0 57 -23t23 -57q0 -41 -31.5 -72.5t-71.5 -31.5q-34 0 -56.5 23.5t-22.5 58.5zM356 68q0 40 31.5 71t71.5 31q34 0 57 -23t23 -57q0 -41 -31.5 -72.5t-71.5 -31.5q-34 0 -57 23.5t-23 58.5zM686 68q0 40 31 71t71 31q34 0 57 -23t23 -57 q0 -41 -31 -72.5t-71 -31.5q-34 0 -57 23.5t-23 58.5z" />
<glyph unicode="&#x202f;" horiz-adv-x="331" />
<glyph unicode="&#x2039;" horiz-adv-x="430" d="M70 485l266 385l72 -43l-234 -342l150 -350l-84 -47z" />
<glyph unicode="&#x203a;" horiz-adv-x="430" d="M27 135l233 350l-147 342l82 43l172 -385l-269 -397z" />
<glyph unicode="&#x205f;" horiz-adv-x="414" />
<glyph unicode="&#x20ac;" horiz-adv-x="811" d="M74 563l28 84h76q7 61 12 84h-96l29 84h82q54 255 125 373q57 96 137 147t174 51q96 0 156 -45l-41 -120q-68 43 -123 43q-162 0 -242 -217q-29 -78 -59 -232h297l-27 -84h-285l-10 -84h266l-28 -84h-244q-4 -106 -4 -145q0 -312 180 -312q68 0 158 50l-14 -127 q-80 -47 -166 -47q-135 0 -213 115.5t-78 316.5q0 66 6 149h-96z" />
<glyph unicode="&#x2122;" horiz-adv-x="917" d="M123 1286l10 80h309l-10 -80h-113l-86 -698h-83l86 698h-113zM358 588l203 778h72l18 -575l168 575h72l-2 -778h-82l8 534l-156 -534h-69l-21 524l-129 -524h-82z" />
<glyph unicode="&#xe000;" horiz-adv-x="931" d="M0 0v932h932v-932h-932z" />
</font>
</defs>
</svg>
